<?xml version="1.0" encoding="UTF-8" standalone="no"?>
<svg
   xmlns:dc="http://purl.org/dc/elements/1.1/"
   xmlns:cc="http://creativecommons.org/ns#"
   xmlns:rdf="http://www.w3.org/1999/02/22-rdf-syntax-ns#"
   xmlns:svg="http://www.w3.org/2000/svg"
   xmlns="http://www.w3.org/2000/svg"
   id="svg8"
   version="1.1"
   viewBox="0 0 5.2916665 5.2916665"
   height="20"
   width="20">
  <defs
     id="defs2" />
  <metadata
     id="metadata5">
    <rdf:RDF>
      <cc:Work
         rdf:about="">
        <dc:format>image/svg+xml</dc:format>
        <dc:type
           rdf:resource="http://purl.org/dc/dcmitype/StillImage" />
        <dc:title></dc:title>
      </cc:Work>
    </rdf:RDF>
  </metadata>
  <g
     transform="translate(0,-291.70833)"
     id="layer1">
    <g
       transform="matrix(0.03849409,0,0,0.03849409,-0.03133902,292.33741)"
       id="layer1-2">
      <g
         transform="matrix(2.1011606,0,0,-2.1011606,114.46631,23.604138)"
         id="g3700"
         style="display:inline;fill:#9ca1a6;fill-opacity:1">
        <path
           id="path3702"
           style="fill:#9ca1a6;fill-opacity:1;fill-rule:nonzero;stroke:none"
           d="m 0,0 c 0,0 0.417,2.417 1.243,-0.118 0,0 0.656,-2.171 -0.236,-2.537 0,0 -1.361,-0.296 -1.123,1.292 0,0 0,0.833 0.116,1.363" />
      </g>
      <g
         transform="matrix(2.1011606,0,0,-2.1011606,57.417104,68.606792)"
         id="g3704"
         style="display:inline;fill:#9ca1a6;fill-opacity:1">
        <path
           id="path3706"
           style="fill:#9ca1a6;fill-opacity:1;fill-rule:nonzero;stroke:none"
           d="m 0,0 c 0,0 1.708,4.066 5.786,4.066 0,0 3.182,0 6.022,-3.246 0,0 3.307,-5.728 5.375,-7.856 0,0 6.663,-6.145 2.944,-10.732 0,0 -1.48,-3.132 -7.258,-1.716 0,0 -5.607,1.716 -6.679,1.361 0,0 -4.062,-0.478 -6.607,-1.361 0,0 -5.603,-1.892 -7.965,1.479 0,0 -1.579,2.357 0.069,6.89 0,0 1.829,3.018 3.72,4.787 0,0 3.945,5.269 4.593,6.328" />
      </g>
      <g
         transform="matrix(2.1011606,0,0,-2.1011606,20.958597,42.935261)"
         id="g3708"
         style="display:inline;fill:#9ca1a6;fill-opacity:1">
        <path
           id="path3710"
           style="fill:#9ca1a6;fill-opacity:1;fill-rule:nonzero;stroke:none"
           d="m 0,0 c 0,0 1.538,7.441 7.959,2.001 0,0 4.559,-5.02 3.79,-9.201 0,0 -1.66,-7.203 -8.496,-3.91 0,0 -5.614,3.024 -3.253,11.11" />
      </g>
      <g
         transform="matrix(2.1011606,0,0,-2.1011606,23.067926,23.604138)"
         id="g3712"
         style="display:inline;fill:#9ca1a6;fill-opacity:1">
        <path
           id="path3714"
           style="fill:#9ca1a6;fill-opacity:1;fill-rule:nonzero;stroke:none"
           d="m 0,0 c 0,0 0.534,1.892 1.177,0.115 0,0 0.588,-2.059 0.301,-2.404 0,0 -0.656,-1.318 -1.827,0.167 0,0 -0.058,1.231 0.349,2.122" />
      </g>
      <g
         transform="matrix(2.1011606,0,0,-2.1011606,47.122638,5.9884464)"
         id="g3716"
         style="display:inline;fill:#9ca1a6;fill-opacity:1">
        <path
           id="path3718"
           style="fill:#9ca1a6;fill-opacity:1;fill-rule:nonzero;stroke:none"
           d="m 0,0 c 0,0 3.371,5.248 6.55,-0.535 0,0 2.369,-4.675 2.187,-9.261 0,0 0.358,-6.488 -6.547,-6.143 0,0 -5.313,0.407 -5.852,7.437 0,0 0.356,4.311 3.662,8.502" />
      </g>
      <g
         transform="matrix(2.1011606,0,0,-2.1011606,53.194155,-14.216727)"
         id="g3720"
         style="display:inline;fill:#9ca1a6;fill-opacity:1">
        <path
           id="path3722"
           style="fill:#9ca1a6;fill-opacity:1;fill-rule:nonzero;stroke:none"
           d="m 0,0 c 0,0 0.65,2.311 1.242,-0.053 0,0 0.826,-2.128 -0.056,-3.193 0,0 -1.533,-0.882 -1.834,0.767 0,0 -0.051,1.12 0.648,2.479" />
      </g>
      <g
         transform="matrix(2.1011606,0,0,-2.1011606,75.898688,11.073022)"
         id="g3724"
         style="display:inline;fill:#9ca1a6;fill-opacity:1">
        <path
           id="path3726"
           style="fill:#9ca1a6;fill-opacity:1;fill-rule:nonzero;stroke:none"
           d="m 0,0 c 0,0 2.602,7.959 6.791,2.297 0,0 2.231,-2.297 2.773,-3.306 0.531,-1.003 2.128,-5.596 1.01,-8.561 0,0 -2.481,-6.774 -9.392,-2.998 0,0 -2.894,1.701 -2.129,7.788 0,0 0.176,3.121 0.947,4.78" />
      </g>
      <g
         transform="matrix(2.1011606,0,0,-2.1011606,81.609006,-13.720227)"
         id="g3728"
         style="display:inline;fill:#9ca1a6;fill-opacity:1">
        <path
           id="path3730"
           style="fill:#9ca1a6;fill-opacity:1;fill-rule:nonzero;stroke:none"
           d="m 0,0 c 0,0 0.355,2.415 1.533,0.053 0,0 1.059,-2.77 0.228,-2.997 0,0 -1.761,-0.596 -1.877,0.528 0,0 -0.182,1.65 0.116,2.416" />
      </g>
      <g
         transform="matrix(2.1011606,0,0,-2.1011606,101.71986,37.881343)"
         id="g3732"
         style="display:inline;fill:#9ca1a6;fill-opacity:1">
        <path
           id="path3734"
           style="fill:#9ca1a6;fill-opacity:1;fill-rule:nonzero;stroke:none"
           d="m 0,0 c 0,0 5.773,5.036 7.838,-1.819 0,0 1.953,-7.385 -1.469,-10.559 0,0 -4.674,-4.972 -8.623,0.519 0,0 -1.837,1.951 -0.596,7.192 0,0 1.245,3.378 2.85,4.667" />
      </g>
    </g>
  </g>
</svg>
